# xmcd
#
# Track frame offsets: 
#        150
#        11190
#        23786
#        36538
#        50620
#        61550
#        72738
#        85569
#        99245
#        111942
#        122290
#        134947
#        148587
#        161637
#        172908
#        186220
#        198583
#        212213
#        224085
#        237773
#        251791
#        265598
#
# Disc length: 3704 seconds
#
# Revision: 0
# Processed by: cddbd v1.5.2PL0 Copyright (c) Steve Scherf et al.
# Submitted via: ExactAudioCopy v1.3
#
DISCID=4b0e7616
DTITLE=Various Artist - Blues Icons - CD1
DYEAR=2017
DGENRE=Blues
TTITLE0=Little red rooster (Howlin' Wolf)
TTITLE1=Spoonful (Howlin' Wolf)
TTITLE2=Moanin' for my baby (Howlin' Wolf)
TTITLE3=Smokestack lightning (Howlin' Wolf)
TTITLE4=Wang dang doodle (Howlin' Wolf)
TTITLE5=You'll be mine (Howlin' Wolf)
TTITLE6=I asked for water, she gave me gasoline (Howlin' Wolf)
TTITLE7=Three o'clock blues (B.B. King)
TTITLE8=Every day I have the blues (B.B. King)
TTITLE9=Fine looking woman (B.B. King)
TTITLE10=Boogie woogie woman (B.B. King)
TTITLE11=Sneakin' around (B.B. King)
TTITLE12=Bad luck (B.B. King)
TTITLE13=She's dynamite (B.B. King)
TTITLE14=Whiskey and wimmen (John Lee Hooker)
TTITLE15=Crawlin' king snake (John Lee Hooker)
TTITLE16=Black cat blues (John Lee Hooker)
TTITLE17=Let your daddy ride (John Lee Hooker)
TTITLE18=Shake your boogie (John Lee Hooker)
TTITLE19=I'm in the mood (John Lee Hooker)
TTITLE20=I got drunk (Sonny Boy's cold chills) (John Lee Hooker)
TTITLE21=War is over (John Lee Hooker)
EXTD=
EXTT0=
EXTT1=
EXTT2=
EXTT3=
EXTT4=
EXTT5=
EXTT6=
EXTT7=
EXTT8=
EXTT9=
EXTT10=
EXTT11=
EXTT12=
EXTT13=
EXTT14=
EXTT15=
EXTT16=
EXTT17=
EXTT18=
EXTT19=
EXTT20=
EXTT21=
PLAYORDER=
